<?xml version="1.0" encoding="UTF-8"?>
<svg width="120px" height="183px" viewBox="0 0 120 183" version="1.1" xmlns="http://www.w3.org/2000/svg" xmlns:xlink="http://www.w3.org/1999/xlink">
    <!-- Generator: Sketch 50.2 (55047) - http://www.bohemiancoding.com/sketch -->
    <title>Group</title>
    <desc>Created with Sketch.</desc>
    <defs></defs>
    <g id="Page-1" stroke="none" stroke-width="1" fill="none" fill-rule="evenodd" stroke-linecap="round">
        <g id="Banner" transform="translate(-425.000000, -408.000000)" stroke-width="9.5">
            <g id="Group-11" transform="translate(430.000000, 409.000000)">
                <g id="Group" transform="translate(0.000000, 4.000000)">
                    <g id="Group-2">
                        <path d="M84.7916667,156.818182 L79.2916667,156.818182" id="Line-9" stroke="#F07078"></path>
                        <path d="M59.5833333,140.909091 L80.2083333,140.909091" id="Line-8" stroke="#82CCE0"></path>
                        <path d="M42.3958333,157.272727 L65.3125,157.272727" id="Line-6" stroke="#263238"></path>
                        <path d="M44.6875,123.100036 L44.6875,73.0729029 C44.9378004,67.4530766 44.921686,63.61897 44.6391568,61.5705832 C43.7842023,55.3720126 41.2700601,52.2727273 37.0967304,52.2727273 C34.8326756,52.2727273 31.0672003,52.2727273 28.7688393,53.8329533 C26.085553,55.6544833 25.3449826,58.6732031 24.7810949,61.5705832 C24.2271861,64.4166897 25.3916397,66.9932802 28.7688393,70.760891 C30.1125361,72.259922 34.9196845,73.296753 42.0875765,73.0729029 C45.624427,72.9624487 52.4901191,72.8472386 62.6846526,72.7272727" id="Line-4" stroke="#263238"></path>
                        <path d="M28.6458333,140.909091 L45.8333333,140.909091" id="Line-5" stroke="#263238"></path>
                        <path d="M28.6458333,126.136364 L58.4375,126.136364" id="Line-2" stroke="#263238"></path>
                        <path d="M68.8081027,0 C66.8973354,0 62.8046387,0 56.5300128,0 C51.3586893,0 39.4208688,1.70324008 27.3726915,9.70131885 C17.4928827,16.2599448 7.71071502,25.2585621 2.45573294,40.6778886 C0.6034012,46.1130562 -0.829899242,56.8955924 0.550076598,65.9315003 C1.76760135,73.9036989 3.98878986,80.5248055 9.46713307,88.0973172 C12.714381,92.5858681 18.0321299,97.9764241 22.4395043,102.633448 C24.5361629,104.848869 24.5361629,104.848869 27.3726915,111.859147 C27.8575215,113.05737 28.0511185,114.244674 28.0846882,115.647354 C28.1628888,118.914893 28.0846882,125.588086 28.0846882,134.053722 C28.0846882,138.100986 27.9310813,155.237929 40.6786607,157.110444 C48.1451248,167.990114 47.4067745,171.841164 56.5300128,171.841164" id="Line" stroke="#263238"></path>
                        <path d="M72.1875,126.136364 L80.2083333,126.136364" id="Line-7" stroke="#263238"></path>
                        <path d="M68.75,172.272727 L70.125,172.272727" id="Line-10" stroke="#263238"></path>
                        <path d="M77.9166667,72.7272727 L105.416667,72.7272727" id="Line-11" stroke="#263238"></path>
                        <path d="M87.0833333,53.4090909 L110,53.4090909" id="Line-11" stroke="#263238"></path>
                        <path d="M58.4375,53.4090909 L72.1875,53.4090909" id="Line-11" stroke="#82CCE0"></path>
                        <path d="M61.875,32.9545455 L104.270833,32.9545455" id="Line-11" stroke="#9DE28D"></path>
                        <path d="M28.6458333,32.9545455 L45.8333333,32.9545455" id="Line-11" stroke="#C792EA"></path>
                        <path d="M90.5208333,92.0454545 L95.1041667,92.0454545" id="Line-11" stroke="#FFCB6B"></path>
                        <path d="M60.7291667,92.0454545 L72.1875,92.0454545" id="Line-11" stroke="#82CCE0"></path>
                        <path d="M69.8958333,110.227273 L83.6458333,110.227273" id="Line-11" stroke="#C792EA"></path>
                        <path d="M74.4791667,15.9090909 L92.8125,15.9090909" id="Line-11" stroke="#263238"></path>
                    </g>
                </g>
            </g>
        </g>
    </g>
</svg>